<?xml version="1.0" encoding="utf-8"?>
<!-- Generator: Adobe Illustrator 22.0.1, SVG Export Plug-In . SVG Version: 6.00 Build 0)  -->
<svg version="1.1" xmlns="http://www.w3.org/2000/svg" xmlns:xlink="http://www.w3.org/1999/xlink" x="0px" y="0px"
	 viewBox="0 0 258.6 69.5" style="enable-background:new 0 0 258.6 69.5;" xml:space="preserve">
<style type="text/css">
	.st0{fill:#FFFFFF;}
</style>
<g id="lines">
	<path class="st0" d="M133.9,22.2c-1.2,0-2.3,0.8-2.7,1.9H5.5c-0.4-1.1-1.4-1.9-2.7-1.9c-1.6,0-2.9,1.3-2.9,2.9
		c0,1.6,1.3,2.9,2.9,2.9c1.2,0,2.3-0.8,2.7-1.9h125.6c0.4,1.1,1.4,1.9,2.7,1.9c1.6,0,2.9-1.3,2.9-2.9
		C136.7,23.5,135.4,22.2,133.9,22.2z"/>
	<path class="st0" d="M255.7,30.9c-1.2,0-2.3,0.8-2.7,1.9h-205c-0.4-1-1.4-1.7-2.6-1.7c-1.6,0-2.9,1.3-2.9,2.9
		c0,1.6,1.3,2.9,2.9,2.9c1.3,0,2.4-0.9,2.7-2H253c0.4,1.1,1.4,1.9,2.7,1.9c1.6,0,2.9-1.3,2.9-2.9S257.3,30.9,255.7,30.9z"/>
</g>
<g id="connecta">
	<g>
		<path class="st0" d="M23.9,16.6c0.1,1,1,1.6,1.9,1.6h0.4v0.3h-5.6v-0.2H21c0.6,0,1.1-0.5,1-1.1L20.8,4.2l-5.4,12
			c0,0-0.7,1.6-0.9,2.6h-0.2L7.7,4.6L6.6,17.1c0,0.6,0.4,1.1,1,1.1H8v0.2H3v-0.3h0.4c0.9,0,1.7-0.6,1.9-1.6L7.2,0.1h0.2l7.2,15.5
			l7-15.5h0.2L23.9,16.6z"/>
		<path class="st0" d="M42.7,16.6c0.5,1.1,1.5,1.6,2.3,1.6h0.2v0.3h-5.8v-0.3h0.2c0.7,0,1.4-0.6,1-1.6l-1.6-4.4H32l-1.7,4.4
			c-0.4,1,0.3,1.6,1,1.6h0.2v0.3h-5.2v-0.3h0.2c0.8,0,1.7-0.5,2.3-1.6l5.8-13.8c0,0,1-2.1,1-2.6h0.2L42.7,16.6z M38.6,11.4l-3.1-8.3
			l-3.2,8.3H38.6z"/>
		<path class="st0" d="M62.2,18.2v0.3h-6.3v-0.3h0.3c0.7,0,1.3-0.8,0.9-1.6l-4-6.3l-4,6.2c-0.4,0.7,0.2,1.6,0.9,1.6h0.3v0.3h-5.8
			v-0.3H45c1.1,0,2.1-0.7,2.6-1.5l4.9-7.3L48,2.2c-0.5-0.8-1.5-1.5-2.6-1.5h-0.4V0.5h6.2v0.3H51c-0.7,0-1.3,0.8-0.9,1.6l3.5,5.6
			l3.5-5.5c0.4-0.7-0.2-1.6-0.9-1.6h-0.3V0.5h5.8v0.3h-0.4c-1.1,0-2,0.7-2.6,1.5l-4.5,6.6l5,7.8c0.5,0.8,1.5,1.5,2.6,1.5H62.2z"/>
		<path class="st0" d="M70.2,0.5c3.3,0,5.3,1.9,5.3,5c0,3.9-4.3,6-7.5,4.3l0-0.2c0,0,4.2,0.9,5.4-2.8c0.1-0.4,0.2-1,0.2-1.6
			c-0.1-2.4-1.3-3.9-3.5-3.9h-3v15.4c0,0.9,0.7,1.6,1.6,1.6h0.3l0,0.3h-5.6l0-0.3h0.3c0.9,0,1.6-0.7,1.6-1.6V2.2
			c-0.1-0.8-0.8-1.5-1.6-1.5h-0.3l0-0.3L70.2,0.5z"/>
		<path class="st0" d="M85.1,0.5c3.1,0,5,1.8,5,4.8c0,2.5-1.9,4.9-4.4,4.9c0.6,0.3,1.3,1.1,1.8,1.8c0,0,2.2,3.2,3.2,4.3
			c1,1.1,2,1.9,3.5,1.9v0.3h-1.4c-2.4,0-3.7-1.3-4.5-2.3c-0.3-0.3-3.2-4.6-3.4-4.8c-0.7-0.8-1.4-1.7-2.4-1.7V9.4c0,0,0.6,0,1.4,0
			c1.3,0,3.3-0.4,4-2.7c0.1-0.4,0.2-1,0.2-1.5c-0.1-2.3-1.3-3.8-3.2-3.9c-1.3-0.1-2.9,0-3.2,0v15.3c0,0.9,0.7,1.6,1.6,1.6h0.3l0,0.3
			h-5.6l0-0.3h0.3c0.9,0,1.6-0.7,1.6-1.6V2.3c0-0.9-0.7-1.6-1.6-1.6h-0.3l0-0.3L85.1,0.5z"/>
		<path class="st0" d="M105.5,18.5H94.8l0-0.3h0.3c0.9,0,1.6-0.7,1.6-1.6V2.2c-0.1-0.8-0.8-1.5-1.6-1.5h-0.3l0-0.3h7.5
			c1.1,0,2.6-0.3,3.1-0.5v0.8v0.4v2.1l-0.3,0V2.8c0-0.8-0.6-1.5-1.4-1.5h-5.2v8h4.3c0.7,0,1.2-0.6,1.2-1.3V7.6l0.3,0v4.1l-0.3,0
			v-0.4c0-0.7-0.5-1.2-1.2-1.3h-4.4v7.7h3.7c2.7,0,3.8-1.4,4.6-3.4h0.3L105.5,18.5z"/>
		<path class="st0" d="M117.6,10.9c1,0.9,1.3,2.1,1.3,3.1c0,2.8-1.9,4.8-4.8,4.8c-1.3,0-3.3-0.4-4.4-1.4c-0.2-0.8-0.1-2.4,0.3-3.6
			h0.2c-0.3,2.7,1.4,4.3,3.7,4.2c1.9-0.1,3.4-1.4,3.4-3.4c0-1-0.4-1.8-1-2.4l-4.9-4.6c-1-0.9-1.4-2.2-1.4-3.2c0-2.2,1.6-4.3,4.5-4.3
			c0.7,0,1.5,0.1,2.2,0.3h1v0.3v2.9h-0.2c0-1.6-1.3-2.6-2.9-2.6c-1.9,0-3.2,1.4-3.2,3c0,0.7,0.2,1.6,1,2.4L117.6,10.9z"/>
		<path class="st0" d="M129.8,10.9c1,0.9,1.3,2.1,1.3,3.1c0,2.8-1.9,4.8-4.8,4.8c-1.3,0-3.3-0.4-4.4-1.4c-0.2-0.8-0.1-2.4,0.3-3.6
			h0.2c-0.3,2.7,1.4,4.3,3.7,4.2c1.9-0.1,3.4-1.4,3.4-3.4c0-1-0.4-1.8-1-2.4l-4.9-4.6c-1-0.9-1.4-2.2-1.4-3.2c0-2.2,1.6-4.3,4.5-4.3
			c0.7,0,1.5,0.1,2.2,0.3h1v0.3v2.9h-0.2c0-1.6-1.3-2.6-2.9-2.6c-1.9,0-3.2,1.4-3.2,3c0,0.7,0.2,1.6,1,2.4L129.8,10.9z"/>
	</g>
</g>
<g id="maxpress">
	<g>
		<path class="st0" d="M34.3,65.9c-1,0.5-2,0.9-3,1.4c-1,0.4-2.1,0.8-3.3,1.2c-1.2,0.3-2.4,0.6-3.8,0.8c-1.4,0.2-2.9,0.3-4.5,0.3
			c-5.2,0-9.2-1.2-12-3.5c-2.8-2.3-4.2-6.2-4.2-11.6c0-3.1,0.5-6.1,1.4-8.8c1-2.8,2.4-5.2,4.3-7.2c1.9-2.1,4.2-3.7,7-4.9
			c2.8-1.2,6-1.8,9.6-1.8c1.7,0,3.3,0.1,4.7,0.3c1.4,0.2,2.7,0.5,3.8,0.9c1.1,0.4,2.2,0.8,3.1,1.2c0.9,0.4,1.7,0.8,2.5,1.2
			l-2.1,10.8H27.4c0-0.4,0.1-0.9,0.1-1.5c0.1-0.6,0.1-1.2,0.1-1.9c0-0.6,0.1-1.3,0.1-1.9c0-0.6,0.1-1.1,0.1-1.6c0-0.3,0-0.7-0.1-1.1
			c0-0.4-0.1-0.8-0.3-1.2c-0.2-0.4-0.4-0.7-0.7-1c-0.3-0.3-0.8-0.4-1.3-0.4c-1,0-1.9,0.4-2.8,1.2c-0.8,0.8-1.6,1.9-2.2,3.3
			c-0.7,1.4-1.2,2.9-1.7,4.7c-0.5,1.7-0.9,3.5-1.2,5.3c-0.3,1.8-0.6,3.6-0.8,5.3c-0.2,1.7-0.3,3.3-0.3,4.6c0,0.4,0,0.9,0.1,1.4
			c0,0.6,0.2,1.1,0.3,1.7c0.2,0.5,0.5,1,0.9,1.4c0.4,0.4,1,0.6,1.7,0.6c1.2,0,2.4-0.7,3.5-2.2c1.1-1.5,2.1-4.1,3-8h10.7L34.3,65.9z"
			/>
		<path class="st0" d="M56.9,43.5c4.6,0,7.9,0.8,10,2.4c2.2,1.7,3.3,4.5,3.3,8.5c0,2.4-0.4,4.6-1.2,6.6c-0.8,2-2,3.6-3.4,4.8
			c-2.9,2.5-7.2,3.7-12.8,3.7c-4.8,0-8.2-0.9-10.2-2.7c-2.2-1.9-3.3-4.7-3.3-8.5c0-2.5,0.5-4.8,1.5-6.8c1-2,2.5-3.7,4.4-5.1
			C48.1,44.4,52,43.5,56.9,43.5z M52.9,65.6c1,0,1.8-0.5,2.5-1.6c0.7-1.1,1.3-2.4,1.7-4c0.4-1.6,0.7-3.2,1-4.9
			c0.2-1.7,0.3-3.1,0.3-4.4c0-1.1-0.1-1.9-0.3-2.5c-0.2-0.6-0.7-0.8-1.4-0.8c-1,0-1.9,0.6-2.7,1.7c-0.8,1.1-1.4,2.5-1.8,4
			c-0.5,1.5-0.8,3.1-1,4.8c-0.2,1.6-0.3,2.9-0.3,3.9C50.9,64.3,51.6,65.6,52.9,65.6z"/>
		<path class="st0" d="M87.5,47.8c0.8-0.8,1.7-1.5,2.7-2.1c0.9-0.5,1.9-1,3.1-1.5c1.2-0.5,2.5-0.7,4-0.7c2,0,3.7,0.5,5,1.5
			c1.3,1,2,2.4,2,4.2c0,0.5-0.1,1.1-0.2,1.8c-0.1,0.7-0.3,1.5-0.4,2.2c-0.2,0.8-0.3,1.6-0.5,2.3c-0.2,0.8-0.3,1.5-0.4,2.1L100.3,69
			H88.6l3.2-15.1c0.1-0.5,0.2-1,0.3-1.5c0.1-0.5,0.2-1,0.2-1.4c0-0.6-0.1-1.1-0.4-1.4c-0.3-0.4-0.7-0.6-1.3-0.6
			c-0.7,0-1.4,0.3-2,0.8c-0.6,0.5-1.1,0.9-1.5,1.3l-3.8,18H71.4l5.3-24.9h9.5l1,3.7H87.5z"/>
		<path class="st0" d="M121.5,47.8c0.8-0.8,1.7-1.5,2.7-2.1c0.9-0.5,1.9-1,3.1-1.5c1.2-0.5,2.5-0.7,4-0.7c2,0,3.7,0.5,5,1.5
			c1.3,1,2,2.4,2,4.2c0,0.5-0.1,1.1-0.2,1.8c-0.1,0.7-0.3,1.5-0.4,2.2c-0.2,0.8-0.3,1.6-0.5,2.3c-0.2,0.8-0.3,1.5-0.4,2.1L134.3,69
			h-11.8l3.2-15.1c0.1-0.5,0.2-1,0.3-1.5c0.1-0.5,0.2-1,0.2-1.4c0-0.6-0.1-1.1-0.4-1.4c-0.3-0.4-0.7-0.6-1.3-0.6
			c-0.7,0-1.4,0.3-2,0.8c-0.6,0.5-1.1,0.9-1.5,1.3l-3.8,18h-11.8l5.3-24.9h9.5l1,3.7H121.5z"/>
		<path class="st0" d="M152.5,57.4c-0.2,0.9-0.3,1.7-0.3,2.4c-0.1,0.8-0.1,1.5-0.1,2.1c0,0.3,0,0.7,0.1,1.2c0,0.4,0.1,0.8,0.3,1.2
			c0.1,0.4,0.3,0.7,0.6,0.9c0.3,0.3,0.6,0.4,1.1,0.4c0.3,0,0.7-0.1,1.2-0.3c0.4-0.2,0.9-0.6,1.3-1c0.4-0.4,0.9-0.9,1.3-1.6
			c0.4-0.6,0.7-1.3,1-2.1h9.5l-1.5,6.2c-0.8,0.5-1.7,0.9-2.7,1.3c-1,0.3-2.1,0.6-3.2,0.8c-1.1,0.2-2.3,0.4-3.4,0.5
			c-1.2,0.1-2.3,0.1-3.3,0.1c-1.9,0-3.7-0.2-5.4-0.5c-1.7-0.3-3.1-0.9-4.3-1.8c-1.2-0.8-2.2-2-2.9-3.4c-0.7-1.4-1.1-3.2-1.1-5.2
			c0-1.9,0.3-3.7,0.9-5.6s1.6-3.4,3-4.8c1.4-1.4,3.3-2.5,5.7-3.4c2.4-0.8,5.3-1.3,8.9-1.3c3.9,0,6.8,0.6,8.7,1.8
			c2,1.2,2.9,3.1,2.9,5.6c0,1-0.2,2.2-0.5,3.4c-0.3,1.2-0.8,2.3-1.4,3.1H152.5z M160.2,50.5c0-1.2-0.2-2-0.6-2.4
			c-0.4-0.4-0.9-0.6-1.4-0.6c-0.6,0-1.2,0.2-1.7,0.6c-0.5,0.4-1,0.9-1.4,1.6c-0.4,0.7-0.8,1.5-1.2,2.3s-0.6,1.8-0.9,2.8h6.6
			c0.1-0.5,0.2-0.9,0.2-1.5c0.1-0.4,0.1-0.9,0.2-1.4C160.2,51.4,160.2,50.9,160.2,50.5z"/>
		<path class="st0" d="M197.4,67.6c-1.6,0.7-3.3,1.1-5.1,1.4c-1.8,0.3-3.8,0.4-6.1,0.4c-2,0-3.9-0.2-5.5-0.6
			c-1.7-0.4-3.1-1.1-4.4-1.9c-1.2-0.9-2.2-2-2.9-3.4c-0.7-1.4-1-3.1-1-5.1c0-2.1,0.4-4,1.1-5.8s1.8-3.4,3.2-4.7
			c1.5-1.4,3.3-2.4,5.5-3.2c2.2-0.8,4.9-1.2,8-1.2c2.5,0,4.7,0.2,6.6,0.6c1.9,0.4,3.4,1.3,4.6,2.8l-1.6,7.4h-7.9
			c0-0.7,0.1-1.2,0.1-1.7c0-0.5,0.1-1.1,0.1-1.7c0-1.2-0.1-2.1-0.4-2.6c-0.3-0.5-0.7-0.8-1.3-0.8c-1.1,0-2,0.5-2.8,1.6
			c-0.8,1.1-1.5,2.3-2,3.8c-0.5,1.5-0.9,3.1-1.2,4.7c-0.3,1.6-0.4,3-0.4,4.2c0,0.4,0,0.9,0.1,1.3s0.1,0.9,0.3,1.2
			c0.1,0.4,0.3,0.7,0.6,0.9c0.2,0.2,0.6,0.3,1,0.3c0.4,0,0.8-0.1,1.3-0.3c0.5-0.2,1-0.6,1.4-1.1c0.5-0.5,0.9-1.1,1.3-1.9
			c0.4-0.8,0.8-1.7,1-2.8h8.3L197.4,67.6z"/>
		<path class="st0" d="M204.3,44.1c1.4-0.3,2.7-0.7,3.8-1c1.1-0.4,2.1-0.9,3-1.5c0.9-0.6,1.8-1.3,2.6-2.1c0.8-0.8,1.7-1.9,2.7-3.1h6
			l-1.7,7.8h4.5l-0.8,3.9h-4.6l-2.4,11.3c-0.2,0.9-0.3,1.7-0.5,2.4c-0.1,0.7-0.2,1.2-0.2,1.6c0,0.8,0.3,1.3,0.8,1.5
			c0.6,0.2,1.6,0.3,3.2,0.3l-0.9,4c-0.3,0.1-0.7,0.1-1.2,0.2c-0.6,0-1.2,0.1-1.9,0.1c-0.7,0.1-1.4,0.1-2.1,0.1c-0.7,0-1.3,0-1.9,0
			c-1,0-1.9-0.1-2.8-0.2c-0.9-0.1-1.8-0.4-2.5-0.8c-0.7-0.4-1.3-1-1.8-1.8c-0.4-0.8-0.7-1.8-0.7-3.1c0-0.5,0-1,0.1-1.7
			c0.1-0.7,0.2-1.5,0.4-2.3L208,48h-4.5L204.3,44.1z"/>
		<path class="st0" d="M228.5,46.2c2-1,4-1.7,6.1-2.1c2.1-0.4,4.4-0.7,6.9-0.7c2.5,0,4.5,0.2,6.1,0.6c1.6,0.4,2.9,0.9,3.9,1.7
			c1,0.7,1.6,1.6,2,2.6c0.4,1,0.6,2.1,0.6,3.4c0,0.7,0,1.5-0.1,2.4c-0.1,0.9-0.2,1.6-0.3,2.1L250.9,69h-9.3l-1-3.7h-0.3
			c-1.2,1.4-2.7,2.4-4.3,3.1c-1.6,0.7-3.3,1.1-4.9,1.1c-0.9,0-1.8-0.1-2.7-0.4s-1.7-0.7-2.4-1.2c-0.7-0.6-1.3-1.3-1.7-2.1
			c-0.4-0.9-0.6-1.9-0.6-3.2c0-2,0.6-3.6,1.7-4.8c1.1-1.2,2.6-2.1,4.3-2.7s3.8-1,6.1-1.1c2.3-0.2,4.5-0.2,6.8-0.2
			c0.1-0.4,0.2-0.9,0.3-1.7c0.1-0.7,0.2-1.3,0.2-1.9c0-0.7-0.2-1.3-0.5-1.9c-0.4-0.6-1.1-0.9-2.3-0.9c-1.4,0-2.3,0.4-3,1.2
			c-0.6,0.8-1.1,1.7-1.2,2.9h-8.5L228.5,46.2z M241.8,56.4h-1c-1.1,0-2.1,0.1-2.9,0.4c-0.8,0.3-1.4,0.7-1.9,1.1
			c-0.5,0.5-0.8,1-1.1,1.6c-0.2,0.6-0.3,1.2-0.3,1.7c0,0.9,0.2,1.6,0.7,2.1c0.5,0.5,1.1,0.7,1.7,0.7c0.8,0,1.6-0.3,2.4-0.9
			c0.8-0.6,1.3-1.4,1.5-2.3L241.8,56.4z"/>
	</g>
</g>
</svg>
