<?xml version="1.0" encoding="utf-8"?>
<!-- Generator: Adobe Illustrator 22.0.1, SVG Export Plug-In . SVG Version: 6.00 Build 0)  -->
<svg fill="#EEE2DF" version="1.1" baseProfile="tiny" id="Camada_1"
	 xmlns="http://www.w3.org/2000/svg" xmlns:xlink="http://www.w3.org/1999/xlink" x="0px" y="0px" viewBox="0 0 36 36"
	 xml:space="preserve">
<path d="M35.8,33.9l-9.1-9.1c-0.2-0.2-0.4-0.2-0.6-0.2h-0.7c2.4-2.6,3.9-6.1,3.9-9.9C29.2,6.5,22.7,0,14.6,0
	S0,6.5,0,14.6s6.5,14.6,14.6,14.6c3.8,0,7.3-1.5,9.9-3.9v0.7c0,0.2,0.1,0.4,0.2,0.6l9.1,9.1c0.3,0.3,0.9,0.3,1.2,0l0.7-0.7
	C36.1,34.7,36.1,34.2,35.8,33.9z M14.6,27C7.8,27,2.2,21.5,2.2,14.6S7.8,2.2,14.6,2.2S27,7.8,27,14.6S21.5,27,14.6,27z"/>
</svg>
