<?xml version="1.0" encoding="utf-8"?>
<!-- Generator: Adobe Illustrator 22.0.1, SVG Export Plug-In . SVG Version: 6.00 Build 0)  -->
<svg version="1.1" baseProfile="tiny" id="Camada_1"
	 xmlns="http://www.w3.org/2000/svg" xmlns:xlink="http://www.w3.org/1999/xlink" x="0px" y="0px" viewBox="0 0 18.6 18.6"
	 xml:space="preserve">
<path fill="#FFFFFF" d="M18.1,8.2l-7.7-7.7C10.1,0.2,9.6,0,9.2,0H1.7C0.8,0,0,0.8,0,1.7v7.4c0,0.5,0.2,0.9,0.5,1.2l7.7,7.7
	c0.7,0.7,1.8,0.7,2.5,0l7.4-7.4C18.8,10,18.8,8.9,18.1,8.2L18.1,8.2z M17.3,9.9l-7.4,7.4c-0.2,0.2-0.6,0.2-0.8,0L1.3,9.6
	C1.2,9.5,1.2,9.3,1.2,9.2V1.7c0-0.3,0.3-0.6,0.6-0.6h7.4c0.2,0,0.3,0.1,0.4,0.2L17.3,9C17.5,9.3,17.5,9.6,17.3,9.9L17.3,9.9z
	 M5.2,4.5C5.6,4.5,6,4.8,6,5.2C6,5.6,5.6,6,5.2,6C4.8,6,4.5,5.6,4.5,5.2C4.5,4.8,4.8,4.5,5.2,4.5 M5.2,3.5c-1,0-1.7,0.8-1.7,1.7
	S4.3,7,5.2,7S7,6.2,7,5.2S6.2,3.5,5.2,3.5z"/>
</svg>
