<svg class="quemAtendeSvg2" xmlns="http://www.w3.org/2000/svg" xmlns:xlink="http://www.w3.org/1999/xlink" x="0px" y="0px" viewBox="0 0 85 85" enable-background="new 0 0 85 85" xml:space="preserve"><path fill="none" stroke="#354A54" stroke-width="2.5" stroke-linejoin="round" stroke-miterlimit="10" d="M27.617,52.068v-7.117c0-3.916,2.834-5.362,6.48-5.362l4.483,4.936l4.159-4.936c3.648,0,6.799,1.446,6.799,5.362v7.117"></path><path fill="none" stroke="#354A54" stroke-width="2.5" stroke-miterlimit="10" d="M43.926,30.014c0,2.986-2.407,5.43-5.349,5.43c-2.94,0-5.347-2.443-5.347-5.43v-2.011c0-2.986,2.406-5.43,5.347-5.43c2.941,0,5.349,2.443,5.349,5.43V30.014z"></path><path fill="none" stroke="#354A54" stroke-width="2.5" stroke-miterlimit="10" d="M55.064,22.159c9.107,9.106,9.107,23.869,0,32.976c-9.105,9.105-23.868,9.105-32.975-0.002c-9.104-9.104-9.106-23.866,0-32.973C31.196,13.054,45.961,13.055,55.064,22.159z"></path><path fill="none" stroke="#354A54" stroke-width="2.5" stroke-miterlimit="10" d="M57.23,52.626L68.926,64.32c1.15,1.15,1.072,3.112-0.174,4.359c-1.248,1.247-3.209,1.325-4.359,0.175l-8.365-8.364"></path></svg>